<?xml version="1.0" encoding="UTF-8"?>
<svg version="1.1" xmlns="http://www.w3.org/2000/svg" width="1725" height="1725">
<path d="M0 0 C1.46799419 0.03033325 1.46799419 0.03033325 2.96564484 0.0612793 C59.75900644 1.23618517 116.69824471 2.44625884 173.375 6.4375 C174.12818512 6.48703827 174.88137024 6.53657654 175.65737915 6.58761597 C203.02777814 8.43560963 233.47517528 15.689009 254 35 C255.07894531 35.99966797 255.07894531 35.99966797 256.1796875 37.01953125 C285.07862998 66.38126818 302.75761497 116.79393962 319.7421875 153.921875 C322.12189072 159.11960884 324.55015603 164.29182787 327.0078125 169.453125 C335.38699219 187.05757357 343.52086797 204.7446044 351.39004517 222.58303833 C351.71121307 223.31102631 352.03238098 224.03901428 352.36328125 224.7890625 C352.67872894 225.50424042 352.99417664 226.21941833 353.31918335 226.95626831 C356.00740164 233.04022368 358.77088024 239.08780884 361.5625 245.125 C373.15729805 270.28095272 384.07178744 295.73738912 394.95629883 321.20654297 C399.23758014 331.22373641 403.52607384 341.23733851 407.86328125 351.23046875 C418.27017938 375.21315074 428.44591402 399.2826749 438.44844055 423.43688965 C440.94608743 429.46661128 443.4586855 435.4897908 445.984375 441.5078125 C466.44438262 490.33568345 485.97808 539.59522552 505 589 C505.34661682 589.89930237 505.69323364 590.79860474 506.050354 591.72515869 C534.07179377 664.42922483 561.05810286 737.52825339 587 811 C587.28665527 811.81140442 587.57331055 812.62280884 587.86865234 813.45880127 C592.28375103 825.95935479 596.6546969 838.47502251 601 851 C601.37987061 852.09471619 601.75974121 853.18943237 602.15112305 854.31732178 C622.378577 912.63750913 642.17537033 971.11276582 660.77636719 1029.97412109 C662.39574616 1035.09624909 664.0224768 1040.2159873 665.65332031 1045.33447266 C679.85241993 1089.90255102 693.64678354 1134.57597751 707.02645969 1179.39671135 C709.18055934 1186.60996047 711.34773709 1193.81926024 713.5151844 1201.02850723 C720.57385924 1224.51383862 727.58995173 1248.00978993 734.3671875 1271.578125 C734.5872452 1272.34333025 734.80730289 1273.1085355 735.03402901 1273.89692879 C737.16578131 1281.31295634 739.29150322 1288.73067342 741.40414047 1296.15217018 C742.17211591 1298.84858765 742.94239624 1301.54434395 743.71294022 1304.24002838 C744.23573798 1306.07301865 744.75482282 1307.90706666 745.27377319 1309.7411499 C746.58971058 1314.34577902 747.90153916 1318.8995505 749.64257812 1323.36328125 C750.97767295 1326.94018278 751.78235927 1330.29984656 752.46484375 1334.05078125 C752.7125513 1335.3644984 752.96245524 1336.67780299 753.21435547 1337.99072266 C753.34171082 1338.65460999 753.46906616 1339.31849731 753.60028076 1340.00250244 C755.0106079 1347.05026184 756.80247946 1354.02639546 758.48242188 1361.01367188 C763.40408048 1381.76184049 768.4341539 1404.46710007 757.80859375 1424.21484375 C750.36216068 1435.68202902 736.29145854 1442.93283677 723.20166016 1445.77001953 C701.80766854 1449.87508799 679.71625373 1450.9477089 658 1452 C656.70657684 1452.06515305 656.70657684 1452.06515305 655.38702393 1452.13162231 C632.72516561 1453.23643001 610.05781604 1453.19956885 587.375 1453.1875 C585.88237892 1453.18732061 585.88237892 1453.18732061 584.35960388 1453.1871376 C553.53507099 1453.18245194 522.77266526 1452.97574249 492 1451 C490.67047302 1450.91655334 490.67047302 1450.91655334 489.31408691 1450.8314209 C483.16504165 1450.44306304 477.01940712 1450.01822465 470.875 1449.5625 C470.10885376 1449.50710052 469.34270752 1449.45170105 468.55334473 1449.3946228 C444.52081586 1447.61091226 421.96385872 1442.17102788 405.4375 1423.20703125 C398.96490294 1414.04426104 396.8873624 1401.78651385 395.4453125 1390.90234375 C395.31789673 1389.95051712 395.19048096 1388.99869049 395.0592041 1388.01802063 C393.81641101 1378.28448387 393.1853122 1368.53825337 392.66360474 1358.74343872 C392.37771364 1353.40333867 392.05883543 1348.06514502 391.74609375 1342.7265625 C391.68389145 1341.65154984 391.62168915 1340.57653717 391.55760193 1339.46894836 C388.78918217 1291.77012637 384.40209129 1244.53464725 373 1198 C372.76168457 1197.02643555 372.52336914 1196.05287109 372.27783203 1195.04980469 C368.12375219 1178.473401 362.5178035 1163.88581848 351 1151 C350.34773438 1150.2059375 349.69546875 1149.411875 349.0234375 1148.59375 C321.06671334 1115.50639107 272.10169766 1097.84745344 230.05810547 1093.97558594 C228.68665029 1093.84814814 228.68665029 1093.84814814 227.28748894 1093.71813583 C218.41101722 1092.91432597 209.53527799 1092.31252957 200.6328125 1091.890625 C199.75756046 1091.84875313 198.88230843 1091.80688126 197.9805336 1091.76374054 C169.34247019 1090.44837064 140.65187349 1090.69933997 111.99069333 1090.74286127 C106.48091247 1090.75036427 100.97120392 1090.74771546 95.46142578 1090.73925781 C-35.55023647 1084.40772162 -35.55023647 1084.40772162 -162 1132 C-162.55671387 1132.43038574 -163.11342773 1132.86077148 -163.68701172 1133.30419922 C-206.78156435 1167.00266499 -212.67619287 1225.11037874 -219 1276 C-221.30009483 1294.90885313 -222.84702123 1313.86996622 -224.03125 1332.87890625 C-224.0745236 1333.57172384 -224.1177972 1334.26454144 -224.16238213 1334.9783535 C-224.59536954 1341.93252408 -225.01673243 1348.88715801 -225.40596676 1355.84392262 C-228.74583409 1415.28657883 -228.74583409 1415.28657883 -245.5 1431.75 C-288.36184147 1465.81131129 -382.01768966 1454.43203737 -432.81933594 1455.90753174 C-435.70512369 1455.99142736 -438.59084895 1456.07717121 -441.4765625 1456.16357422 C-452.03834321 1456.47658478 -462.60070113 1456.72689468 -473.16491699 1456.94140625 C-476.18975749 1457.00392179 -479.21450287 1457.07019747 -482.23925781 1457.13671875 C-639.46615506 1460.53885417 -639.46615506 1460.53885417 -702.375 1456.125 C-703.32697266 1456.05877441 -704.27894531 1455.99254883 -705.25976562 1455.92431641 C-719.04110552 1454.72826748 -731.54472233 1450.90402047 -741.5 1440.875 C-750.12235558 1430.15094525 -750.27524023 1416.13748574 -749 1403 C-748.15924785 1398.40322492 -746.78485661 1394.31119668 -745 1390 C-744.27103516 1388.17855469 -744.27103516 1388.17855469 -743.52734375 1386.3203125 C-729.20231968 1351.58202017 -707.12249037 1319.77586748 -686.6171875 1288.47216797 C-685.03162951 1286.04835152 -683.45229009 1283.62060954 -681.875 1281.19140625 C-663.36723328 1252.70630319 -644.61692943 1224.37779313 -625.75006104 1196.12957764 C-615.74333406 1181.14473081 -605.83166084 1166.10024177 -596 1151 C-595.45891602 1150.16968262 -594.91783203 1149.33936523 -594.36035156 1148.48388672 C-587.05373972 1137.263191 -579.86297206 1125.96885295 -572.69042969 1114.66210938 C-571.1433238 1112.22570808 -569.59187126 1109.79214376 -568.0390625 1107.359375 C-554.16277029 1085.57072462 -540.82531297 1063.42270627 -528 1041 C-527.40509766 1039.96117676 -526.81019531 1038.92235352 -526.19726562 1037.85205078 C-508.52647364 1006.86243922 -492.40235784 975.12671404 -480.8125 941.3125 C-480.53269287 940.50594971 -480.25288574 939.69939941 -479.96459961 938.8684082 C-476.24742811 927.49647489 -476.38973155 917.28170207 -481.22265625 906.1953125 C-486.39567098 896.71385375 -493.5938731 891.89966349 -503.78027344 888.64038086 C-519.72555888 883.99000005 -536.69725221 882.86597283 -553.21875 882.796875 C-554.34708252 882.78981537 -555.47541504 882.78275574 -556.63793945 882.77548218 C-590.44283438 882.44733514 -590.44283438 882.44733514 -624 886 C-625.22364258 886.19867676 -626.44728516 886.39735352 -627.70800781 886.60205078 C-687.9860205 896.61339029 -743.55665323 923.18035834 -786.25390625 967.3359375 C-795.67275175 977.07309994 -805.1842333 986.16097284 -819.4375 986.5 C-830.31444486 986.52132242 -840.5568771 982.66253 -848.453125 974.96875 C-858.14841322 962.62929227 -857.15457364 942.51030358 -857.12939453 927.6965332 C-857.13114685 926.40962585 -857.13289917 925.12271851 -857.13470459 923.79681396 C-857.1392368 920.28347704 -857.13750132 916.77016976 -857.1343255 913.25683236 C-857.13175584 909.51010333 -857.13415425 905.76337649 -857.13571167 902.01664734 C-857.1375302 895.67930664 -857.13514588 889.34197759 -857.13037109 883.00463867 C-857.12561668 876.62377145 -857.1254752 870.24292766 -857.13037109 863.86206055 C-857.15404493 832.15851692 -857.11935576 800.46103925 -856.546875 768.76171875 C-856.526926 767.6379162 -856.50697701 766.51411366 -856.48642349 765.35625648 C-855.22814711 696.58379989 -855.22814711 696.58379989 -847.25 681.0625 C-846.722854 680.00131958 -846.722854 680.00131958 -846.18505859 678.91870117 C-840.63566473 668.0512424 -834.53235319 661.11616377 -822.85546875 656.8515625 C-802.49600849 650.98415575 -780.07321898 650.68183687 -759 650 C-757.35038773 649.94624458 -757.35038773 649.94624458 -755.66744995 649.8914032 C-726.97648995 648.98520535 -698.27729551 648.61134027 -669.57581818 648.21416855 C-653.94883749 647.99780448 -638.32204827 647.7684887 -622.6953125 647.53515625 C-621.95115656 647.52405209 -621.20700062 647.51294793 -620.4402945 647.50150728 C-566.55953131 646.69637376 -512.67021084 645.81722125 -458.8125 644 C-457.67636261 643.96406738 -456.54022522 643.92813477 -455.36965942 643.89111328 C-452.29415476 643.79157144 -449.21941016 643.67961584 -446.14453125 643.5625 C-444.83678741 643.52189453 -444.83678741 643.52189453 -443.50262451 643.48046875 C-436.36079884 643.22270246 -436.36079884 643.22270246 -430.49633789 639.46069336 C-430.07602295 638.84331299 -429.65570801 638.22593262 -429.22265625 637.58984375 C-428.72072754 636.86442383 -428.21879883 636.13900391 -427.70166016 635.39160156 C-426.89027588 634.17682129 -426.89027588 634.17682129 -426.0625 632.9375 C-425.47259277 632.07479492 -424.88268555 631.21208984 -424.27490234 630.32324219 C-422.55894367 627.80234605 -420.85657725 625.27290692 -419.1618042 622.73773193 C-417.92893411 620.89370544 -416.69337765 619.05149777 -415.45751953 617.20947266 C-410.27679903 609.48286363 -405.12053584 601.7401955 -399.97698975 593.98880005 C-396.60438515 588.90688624 -393.21839184 583.83406543 -389.82739258 578.7644043 C-374.36419075 555.63452264 -359.16568714 532.3257148 -344 509 C-343.52481934 508.2692627 -343.04963867 507.53852539 -342.56005859 506.78564453 C-335.37854289 495.73378918 -328.27323321 484.63331786 -321.17578125 473.52734375 C-318.4511815 469.26487856 -315.71936602 465.00719747 -312.98046875 460.75390625 C-303.4583105 445.95359164 -294.14880134 431.03391527 -285 416 C-284.36175293 414.95312012 -283.72350586 413.90624023 -283.06591797 412.82763672 C-273.68571179 397.41575931 -264.61718682 381.85223497 -256 366 C-255.41863281 364.93056152 -254.83726562 363.86112305 -254.23828125 362.75927734 C-226.7765292 315.90082384 -226.7765292 315.90082384 -219 265 C-222.41575637 254.96318032 -228.2556389 246.39045795 -237.8828125 241.55078125 C-260.49809631 232.29907424 -285.98276671 232.61286215 -310 232.6875 C-311.82366592 232.69023422 -311.82366592 232.69023422 -313.68417358 232.69302368 C-331.30884216 232.73754177 -348.58376852 233.07829177 -366 236 C-367.06702148 236.17160645 -368.13404297 236.34321289 -369.23339844 236.52001953 C-399.59980301 241.51561005 -429.9132112 250.23186179 -457.07080078 264.95507812 C-459.16147026 266.08745795 -461.26614718 267.19128366 -463.37109375 268.296875 C-474.19197859 274.06189089 -484.18378126 280.66573672 -494 288 C-494.61327148 288.45487793 -495.22654297 288.90975586 -495.85839844 289.37841797 C-507.34842232 297.95675822 -517.80340173 307.64062282 -527.80883789 317.89868164 C-536.93321189 327.23638733 -547.64211568 336.18761692 -561.1875 337.25 C-573.01694545 336.47429866 -581.941758 329.75691209 -589.921875 321.4140625 C-598.84723648 311.04587943 -600.36107218 300.40093499 -600.15112305 287.04589844 C-600.14324233 286.00602406 -600.13536161 284.96614967 -600.12724209 283.89476395 C-600.0987225 280.46612622 -600.05530591 277.03785157 -600.01171875 273.609375 C-599.98836281 271.17212746 -599.96591132 268.7348711 -599.94430542 266.29760742 C-599.89012463 260.46175414 -599.82626646 254.6260693 -599.75745201 248.79037142 C-599.70219507 244.08412065 -599.65130662 239.37784083 -599.60348511 234.67150879 C-599.59669391 234.00318063 -599.5899027 233.33485247 -599.58290571 232.64627194 C-599.56920149 231.2952828 -599.55550941 229.94429354 -599.54182947 228.59330416 C-599.41366725 215.9825097 -599.27198714 203.37190595 -599.124156 190.76132584 C-599.03619883 183.23025942 -598.95348473 175.6991696 -598.87792969 168.16796875 C-597.51674296 32.94959341 -597.51674296 32.94959341 -577.4375 13.25 C-558.6944715 -1.94134768 -526.83932063 1.00428312 -504 0 C-502.80407227 -0.05397949 -501.60814453 -0.10795898 -500.37597656 -0.16357422 C-457.42077011 -2.04801976 -414.38099733 -2.28379493 -371.39234638 -2.60878325 C-369.22787905 -2.62516745 -367.06341389 -2.64182103 -364.89894867 -2.6584816 C-280.4051435 -3.30330206 -195.90309282 -2.87527878 0 0 Z M65.4921875 407.16015625 C16.98256188 462.43679861 1.37799973 578.42219313 -64.3125 841.6875 C-64.30686035 842.40808594 -64.3012207 843.12867188 -64.29541016 843.87109375 C-64.02363708 855.83987221 -59.51203406 864.25551253 -51.5625 873 C-26.67507075 896.75188115 14.52691885 900.61742887 47 903 C47.74926758 903.05784668 48.49853516 903.11569336 49.27050781 903.17529297 C96.81673552 906.72179114 174.85288935 909.79355647 213.66015625 876.57910156 C223.68356212 867.61609147 229.23169473 859.42879942 230.23828125 845.765625 C230.66088806 825.7474077 226.15800106 805.97961523 222 786.5 C221.74923706 785.31260727 221.74923706 785.31260727 221.4934082 784.10122681 C219.77478395 776.01854535 217.9160832 768.2631517 214.91503906 760.54345703 C213.29246506 756.03332471 212.36152948 751.37026986 211.375 746.6875 C210.96899665 744.79495909 210.56021916 742.90301082 210.1484375 741.01171875 C209.97489746 740.19147217 209.80135742 739.37122559 209.62255859 738.52612305 C209.02669425 735.93101999 209.02669425 735.93101999 208.0163269 733.21591187 C207.03340547 730.10570324 206.52512082 727.24911037 206.11621094 724.01928711 C205.05026753 716.7179362 203.18104674 709.77365548 201.140625 702.69140625 C200.75530401 701.33385044 200.37058474 699.97612372 199.98641968 698.61824036 C198.96297566 695.00958768 197.92917533 691.40398625 196.89246368 687.79912567 C196.2451917 685.54576073 195.60074863 683.29160544 194.95721436 681.03717041 C187.599918 655.26736725 180.00289224 629.57741505 172 604 C171.74061646 603.17024658 171.48123291 602.34049316 171.21398926 601.4855957 C167.79128076 590.5447217 164.31937478 579.61991413 160.82373047 568.70214844 C159.53477651 564.67545804 158.25059755 560.64727761 156.96923828 556.61816406 C149.01629867 531.61392579 140.97651704 506.64031186 132.58602905 481.77893066 C131.83596947 479.55595616 131.08801149 477.33227113 130.34243774 475.10778809 C117.78575578 433.05091408 117.78575578 433.05091408 91 400 C80.56485335 395.38445437 73.25276215 400.3283061 65.4921875 407.16015625 Z " fill="#FD4242" transform="translate(903,136)"/>
</svg>
